<?xml version="1.0" encoding="UTF-8"?>
<svg width="119px" height="17px" viewBox="0 0 119 17" version="1.1" xmlns="http://www.w3.org/2000/svg" xmlns:xlink="http://www.w3.org/1999/xlink">
    <!-- Generator: Sketch Beta 39.1 (31721) - http://www.bohemiancoding.com/sketch -->
    <title>重拾写作的乐趣</title>
    <desc>Created with Sketch Beta.</desc>
    <defs></defs>
    <g id="Page-1" stroke="none" stroke-width="1" fill="none" fill-rule="evenodd">
        <g id="Desktop-HD" transform="translate(-651.000000, -692.000000)" fill="#1F1F1F">
            <path d="M658.743074,694.684039 C656.863304,694.865222 655.011872,695.001107 653.188721,695.091698 L653.188721,694.768968 C654.909956,694.553814 656.857641,694.199946 659.031833,693.707356 C661.206025,693.214766 662.564875,692.826927 663.108423,692.543829 C663.516084,692.917519 663.835979,693.257231 664.06812,693.562977 C664.30026,693.868723 664.416328,694.069719 664.416328,694.165972 C664.416328,694.262226 664.368202,694.310352 664.271949,694.310352 C664.175696,694.310352 664.06812,694.287704 663.949219,694.242408 C663.830318,694.197113 663.629322,694.174465 663.346224,694.174465 C663.063126,694.174465 662.539402,694.225422 661.775038,694.327337 C661.010674,694.429253 660.481288,694.491533 660.186867,694.514181 L660.186867,695.77113 L664.484272,695.77113 L665.214661,694.904854 C665.361871,694.734996 665.500587,694.650067 665.630812,694.650067 C665.761037,694.650067 666.06961,694.856726 666.556538,695.270049 C667.043466,695.683372 667.286927,695.952311 667.286927,696.076874 C667.286927,696.201437 667.173689,696.263718 666.947211,696.263718 L660.186867,696.263718 L660.186867,697.792439 L662.853636,697.792439 L663.312252,697.146979 C663.402843,697.022416 663.484941,696.960135 663.558546,696.960135 C663.632151,696.960135 663.915245,697.118667 664.407836,697.435737 C664.900426,697.752807 665.146717,697.962296 665.146717,698.064211 C665.146717,698.17745 664.937228,698.341645 664.518243,698.556799 L664.518243,701.648213 C664.518243,701.886015 664.523905,702.089843 664.535229,702.259701 L664.569201,702.684346 C664.569201,702.740966 664.552215,702.786261 664.518243,702.820233 C664.484271,702.854204 664.371034,702.922147 664.178527,703.024062 C663.986021,703.125977 663.77087,703.216567 663.533067,703.295835 C663.295265,703.375102 663.150887,703.414735 663.09993,703.414735 C663.048972,703.414735 663.023494,703.352455 663.023494,703.227891 L663.023494,702.769275 L660.186867,702.769275 L660.186867,704.331968 L663.363209,704.331968 L663.906755,703.499664 C664.019994,703.329805 664.124739,703.244877 664.220992,703.244877 C664.317245,703.244877 664.501256,703.341129 664.77303,703.533636 C665.044804,703.726142 665.282603,703.921477 665.486433,704.119645 C665.690264,704.317814 665.792177,704.462192 665.792177,704.552783 C665.792177,704.711318 665.661954,704.790584 665.401504,704.790584 L660.186867,704.790584 L660.186867,706.862851 L664.535229,706.862851 L665.146717,705.843703 C665.27128,705.651197 665.393011,705.554945 665.511912,705.554945 C665.630813,705.554945 665.962033,705.787082 666.505581,706.251362 C667.049129,706.715643 667.320899,707.015722 667.320899,707.151609 C667.320899,707.287496 667.218985,707.355438 667.015154,707.355438 L653.018863,707.355438 C652.713117,707.355438 652.475319,707.38941 652.30546,707.457353 L651.999716,706.777922 C652.237518,706.834541 652.520612,706.862851 652.849005,706.862851 L658.743074,706.862851 L658.743074,704.790584 L654.530599,704.790584 C654.224853,704.790584 653.987054,704.824555 653.817195,704.892499 L653.511451,704.247039 C653.749253,704.303658 654.032347,704.331968 654.360741,704.331968 L658.743074,704.331968 L658.743074,702.769275 L655.872476,702.769275 L655.872476,703.159948 C655.872476,703.273187 655.832843,703.363777 655.753575,703.431721 C655.674308,703.499664 655.46765,703.598747 655.133594,703.728972 C654.799539,703.859197 654.581556,703.924309 654.479641,703.924309 C654.434345,703.924309 654.411698,703.879014 654.411698,703.788423 L654.428684,703.19392 C654.440008,703.012737 654.44567,702.820234 654.44567,702.616403 L654.44567,698.658714 C654.44567,698.183109 654.428684,697.70185 654.394712,697.214922 C655.130767,697.430076 655.668645,697.62258 656.008362,697.792439 L658.743074,697.792439 L658.743074,696.263718 L652.679147,696.263718 C652.418697,696.263718 652.180899,696.303351 651.965744,696.382618 L651.66,695.686201 C651.897802,695.74282 652.180896,695.77113 652.50929,695.77113 L658.743074,695.77113 L658.743074,694.684039 Z M658.743074,700.136478 L658.743074,698.318998 L655.872476,698.318998 L655.872476,700.136478 L658.743074,700.136478 Z M660.186867,698.318998 L660.186867,700.136478 L663.023494,700.136478 L663.023494,698.318998 L660.186867,698.318998 Z M658.743074,702.310659 L658.743074,700.629066 L655.872476,700.629066 L655.872476,702.310659 L658.743074,702.310659 Z M660.186867,700.629066 L660.186867,702.310659 L663.023494,702.310659 L663.023494,700.629066 L660.186867,700.629066 Z M679.109037,694.836911 C677.965321,697.248905 676.295069,699.417403 674.098229,701.342469 L673.826456,701.138639 C674.822961,700.040219 675.66658,698.831409 676.357339,697.512173 C677.048098,696.192937 677.676566,694.565148 678.242762,692.628758 C678.967492,692.866561 679.482723,693.050572 679.788468,693.180797 C680.094214,693.311022 680.247085,693.412935 680.247085,693.486541 C680.247085,693.560146 680.139509,693.628089 679.924355,693.69037 C679.7092,693.752652 679.52802,693.947986 679.38081,694.27638 C680.73968,696.79029 682.455227,698.341643 684.527504,698.930487 L684.527504,699.219245 C684.029252,699.287189 683.686708,699.366455 683.499864,699.457046 C683.313019,699.547637 683.151656,699.711832 683.015769,699.949634 C682.947825,700.062873 682.868559,700.119492 682.777968,700.119492 C682.574137,700.119492 682.056076,699.669373 681.223768,698.769122 C680.39146,697.86887 679.686557,696.558146 679.109037,694.836911 L679.109037,694.836911 Z M671.346531,697.248893 L669.596994,697.248893 C669.313896,697.248893 669.070436,697.277203 668.866605,697.333822 L668.577847,696.671376 C668.815649,696.727996 669.098743,696.756305 669.427137,696.756305 L671.346531,696.756305 L671.346531,694.616096 C671.346531,693.959309 671.335207,693.347826 671.312559,692.781631 C672.739373,693.177968 673.452769,693.466723 673.452769,693.647906 C673.452769,693.749821 673.231956,693.925339 672.790323,694.174465 L672.790323,696.756305 L673.299897,696.756305 L673.894399,695.991945 C674.007638,695.856058 674.109552,695.788115 674.200144,695.788115 C674.290735,695.788115 674.432282,695.878705 674.624788,696.059888 L675.253263,696.637405 C675.479741,696.841235 675.592978,696.994106 675.592978,697.096021 C675.592978,697.197936 675.457093,697.248893 675.185319,697.248893 L672.790323,697.248893 L672.790323,699.508003 L674.998476,698.420913 L675.168334,698.709671 L672.790323,700.374279 L672.790323,706.30232 C672.790323,706.642037 672.764845,706.908145 672.713887,707.100652 C672.662929,707.293158 672.549692,707.468676 672.374171,707.627211 C672.19865,707.785746 671.921219,707.944278 671.541867,708.102813 C671.162516,708.261348 670.930379,708.340614 670.84545,708.340614 C670.760521,708.340614 670.689747,708.255686 670.633128,708.085827 C670.497241,707.644195 670.304737,707.310144 670.055611,707.083666 C669.806485,706.857188 669.336549,706.619389 668.64579,706.370263 L668.764691,705.996575 C669.795167,706.189082 670.451944,706.285334 670.735042,706.285334 C671.01814,706.285334 671.190827,706.245701 671.253109,706.166433 C671.31539,706.087166 671.346531,705.939957 671.346531,705.724803 L671.346531,701.393426 C670.723715,701.846383 670.236794,702.265361 669.885753,702.650375 C669.806485,702.740966 669.741374,702.786261 669.690416,702.786261 C669.639459,702.786261 669.543207,702.704164 669.401658,702.539967 C669.260109,702.37577 668.957199,701.970946 668.492918,701.325483 C669.602662,700.963118 670.553857,700.589434 671.346531,700.204421 L671.346531,697.248893 Z M679.907369,699.558961 L680.315028,698.930487 C680.428267,698.771952 680.524519,698.692686 680.603786,698.692686 C680.683054,698.692686 680.833093,698.800261 681.05391,699.015416 C681.274726,699.23057 681.481385,699.423074 681.673891,699.592932 C681.866398,699.762791 681.96265,699.893014 681.96265,699.983606 C681.96265,700.074197 681.87206,700.119492 681.690877,700.119492 L677.138685,700.119492 C676.832939,700.119492 676.595141,700.153463 676.425282,700.221407 L676.119538,699.474032 C676.35734,699.530651 676.640434,699.558961 676.968827,699.558961 L679.907369,699.558961 Z M680.824602,706.659021 L677.172657,706.659021 L677.172657,707.610225 C677.172657,707.76876 677.144347,707.876336 677.087728,707.932955 C677.031108,707.989575 676.810295,708.088658 676.425282,708.230207 C676.040269,708.371756 675.819456,708.442529 675.762836,708.442529 C675.706217,708.442529 675.677907,708.402896 675.677907,708.323629 L675.711879,707.542282 C675.734527,707.225213 675.74585,706.930795 675.74585,706.659021 L675.74585,702.718318 C675.74585,702.242713 675.728865,701.761454 675.694893,701.274526 C676.510215,701.557624 677.144345,701.812408 677.597302,702.038886 L680.603786,702.038886 L680.943502,701.37644 C681.000122,701.274525 681.070895,701.223568 681.155825,701.223568 C681.240754,701.223568 681.478553,701.333975 681.869228,701.554791 C682.259903,701.775608 682.511856,701.925647 682.625095,702.004915 C682.738335,702.084182 682.794953,702.171941 682.794953,702.268194 C682.794953,702.364448 682.642083,702.520149 682.336337,702.735304 L682.336337,706.064518 L682.370309,707.27051 C682.370309,707.395073 682.325014,707.491324 682.234422,707.559268 C682.143831,707.627211 681.92868,707.729125 681.588962,707.865012 C681.249245,708.000899 681.028432,708.068842 680.926516,708.068842 C680.858573,708.068842 680.824602,707.989575 680.824602,707.831041 L680.824602,706.659021 Z M677.172657,706.081504 L680.824602,706.081504 L680.824602,702.582431 L677.172657,702.582431 L677.172657,706.081504 Z M688.485193,694.259394 L698.880497,694.259394 L699.424042,693.698863 C699.571253,693.540328 699.68449,693.461062 699.763758,693.461062 C699.843025,693.461062 699.984572,693.54599 700.188402,693.715849 C700.392233,693.885708 700.627201,694.092366 700.893313,694.33583 C701.159425,694.579295 701.351928,694.771798 701.47083,694.913347 C701.589731,695.054896 701.64918,695.165303 701.64918,695.24457 C701.64918,695.380457 701.530281,695.4484 701.292479,695.4484 C701.224535,695.4484 701.133945,695.439907 701.020706,695.422921 C700.907467,695.405935 700.799891,695.397442 700.697976,695.397442 C700.346935,695.397442 700.010053,695.530496 699.687322,695.796608 C699.36459,696.06272 698.976752,696.456221 698.523795,696.977121 L698.201065,696.790277 C698.450191,696.144814 698.676666,695.476713 698.880497,694.785954 L688.502179,694.785954 C688.536151,695.725839 688.363463,696.464713 687.984112,697.002599 C687.604761,697.540485 687.171628,697.809424 686.684699,697.809424 C686.401601,697.809424 686.18645,697.738651 686.039239,697.597102 C685.892028,697.455553 685.818424,697.277204 685.818424,697.06205 C685.818424,696.846895 686.019421,696.55814 686.42142,696.195774 C686.823419,695.833409 687.157469,695.437078 687.423581,695.006769 C687.689693,694.57646 687.856718,694.027258 687.924662,693.359147 L688.383278,693.376133 L688.485193,694.259394 Z M691.101005,698.641728 L690.778275,700.815909 L697.419719,700.815909 L697.861349,700.153463 C697.963264,699.994929 698.062347,699.915662 698.158601,699.915662 C698.254854,699.915662 698.591735,700.09118 699.169255,700.442222 C699.746775,700.793263 700.03553,701.031062 700.03553,701.155625 C700.03553,701.291512 699.797732,701.455706 699.322127,701.648213 C699.310803,702.248381 699.234368,703.236378 699.092819,704.612233 C698.95127,705.988089 698.707809,706.877003 698.36243,707.279002 C698.017051,707.681001 697.612227,707.972588 697.147946,708.153771 C696.683665,708.334953 696.392079,708.425543 696.273178,708.425543 C696.154277,708.425543 696.077841,708.334953 696.04387,708.153771 C695.975926,707.74611 695.780592,707.41489 695.45786,707.160102 C695.135128,706.905314 694.532139,706.642037 693.648873,706.370263 L693.750788,705.979589 C694.951123,706.18342 695.749447,706.285334 696.145784,706.285334 C696.542121,706.285334 696.813891,706.186251 696.961102,705.988082 C697.108313,705.789914 697.258353,705.269021 697.411226,704.42539 C697.564099,703.581758 697.646196,702.554128 697.65752,701.342469 L690.795261,701.342469 L690.421573,701.886014 C690.29701,702.055873 690.169618,702.140801 690.039393,702.140801 C689.909168,702.140801 689.685524,702.038887 689.368454,701.835057 C689.051384,701.631226 688.73432,701.382104 688.41725,701.087682 C688.655052,700.997091 688.841894,700.889515 688.977781,700.764952 C689.113668,700.640389 689.221244,700.368619 689.300511,699.949634 L689.82707,696.960135 C689.951634,696.303348 689.996929,695.799441 689.962957,695.4484 C691.276531,695.844737 691.933308,696.144816 691.933308,696.348646 C691.933308,696.439238 691.746467,696.603432 691.372777,696.841234 L691.185934,698.098183 L696.978088,698.098183 L697.708477,696.994107 C697.776421,696.903515 697.852856,696.85822 697.937785,696.85822 C698.022715,696.85822 698.212387,696.97995 698.506809,697.223415 C698.801231,697.466879 699.089987,697.696185 699.373085,697.911339 C699.656182,698.126494 699.797729,698.302012 699.797729,698.437899 C699.797729,698.573786 699.661844,698.641728 699.39007,698.641728 L691.101005,698.641728 Z M694.005575,703.975266 L694.769935,702.922147 C694.871851,702.774936 694.973764,702.701332 695.07568,702.701332 C695.177595,702.701332 695.500322,702.9363 696.04387,703.406242 C696.587418,703.876185 696.859188,704.167771 696.859188,704.28101 C696.859188,704.39425 696.734626,704.450868 696.4855,704.450868 L687.024415,704.450868 C686.741317,704.450868 686.497857,704.479178 686.294026,704.535797 L686.005268,703.890337 C686.24307,703.946957 686.526164,703.975266 686.854557,703.975266 L694.005575,703.975266 Z M711.263138,695.720172 L715.169869,695.720172 L715.900258,694.59911 C715.979526,694.463223 716.058792,694.395281 716.138059,694.395281 C716.217327,694.395281 716.361705,694.474547 716.571197,694.633082 C716.78069,694.791617 717.05529,695.015261 717.395008,695.30402 C717.734725,695.59278 717.952708,695.785284 718.048961,695.881537 C718.145214,695.977791 718.19334,696.059888 718.19334,696.127831 C718.19334,696.24107 718.074441,696.297689 717.836638,696.297689 L712.757887,696.297689 L712.757887,699.609918 L714.830154,699.609918 L715.475614,698.641728 C715.554881,698.528489 715.639809,698.47187 715.7304,698.47187 C715.820992,698.47187 715.979524,698.556798 716.206003,698.726657 L717.055292,699.389103 C717.406334,699.649553 717.581852,699.839226 717.581852,699.958127 C717.581852,700.077028 717.479938,700.136478 717.276107,700.136478 L712.757887,700.136478 L712.757887,703.244877 L715.050969,703.244877 L715.781358,702.191758 C715.860625,702.078519 715.954046,702.0219 716.061623,702.0219 C716.169201,702.0219 716.506082,702.265361 717.072278,702.752289 C717.638474,703.239218 717.921567,703.530804 717.921567,703.627058 C717.921567,703.723311 717.80833,703.771437 717.581852,703.771437 L712.757887,703.771437 L712.757887,707.678169 C712.757887,707.746112 712.738071,707.7999 712.698437,707.839534 C712.658803,707.879167 712.539904,707.961264 712.341735,708.085827 C712.143567,708.210391 711.931247,708.315135 711.704768,708.400065 C711.47829,708.484994 711.333912,708.527458 711.271631,708.527458 C711.209349,708.527458 711.178209,708.476501 711.178209,708.374586 L711.246152,706.794907 C711.257476,706.319303 711.263138,705.849367 711.263138,705.385087 L711.263138,696.297689 L710.974379,696.297689 C710.238325,697.724503 709.004036,699.315489 707.271477,701.070696 L707.01669,700.815909 C708.013195,699.491011 708.794533,698.202935 709.360729,696.951642 C709.926925,695.700349 710.402522,694.253741 710.787536,692.611773 C711.500942,692.826927 711.993525,693.010938 712.265299,693.163811 C712.537073,693.316684 712.672958,693.421428 712.672958,693.478048 C712.672958,693.557315 712.582368,693.616765 712.401186,693.656399 C712.220003,693.696032 712.084118,693.834748 711.993527,694.072551 C711.902935,694.310353 711.659475,694.859555 711.263138,695.720172 L711.263138,695.720172 Z M705.40304,699.202259 C704.678309,700.255383 703.783733,701.30283 702.719285,702.34463 L702.464498,702.123815 C704.593395,699.258864 706.003201,696.099539 706.69396,692.645744 C708.041506,693.064729 708.715269,693.353485 708.715269,693.51202 C708.715269,693.579963 708.630341,693.636582 708.460482,693.681877 C708.290624,693.727173 708.154739,693.820594 708.052823,693.962143 C707.950908,694.103692 707.755573,694.545318 707.466814,695.287035 C707.178054,696.028751 706.818525,696.801597 706.388216,697.605595 C706.761905,697.741482 706.98838,697.832072 707.067647,697.877368 C707.146915,697.922663 707.186548,697.97362 707.186548,698.03024 C707.186548,698.086859 707.061987,698.183111 706.812861,698.318998 L706.812861,707.542282 C706.812861,707.632874 706.801537,707.695154 706.778889,707.729126 C706.756241,707.763098 706.640173,707.839533 706.43068,707.958434 C706.221188,708.077335 706.008868,708.176418 705.793713,708.255685 C705.578559,708.334953 705.445505,708.374586 705.394547,708.374586 C705.34359,708.374586 705.318111,708.312305 705.318111,708.187742 L705.369068,707.287495 C705.391716,706.676004 705.40304,705.973932 705.40304,705.181257 L705.40304,699.202259 Z M729.930521,696.654391 C729.443593,697.639571 728.582988,698.947464 727.348681,700.578108 L727.059922,700.391265 C727.762005,698.862536 728.285729,697.563136 728.631108,696.493026 C728.976488,695.422916 729.313369,694.038588 729.641763,692.34 C730.162663,692.521183 730.621275,692.696701 731.017612,692.866559 C731.413949,693.036418 731.654578,693.152487 731.739508,693.214768 C731.824437,693.27705 731.866901,693.347823 731.866901,693.427091 C731.866901,693.506358 731.77348,693.568639 731.586636,693.613934 C731.399791,693.65923 731.27523,693.727172 731.212948,693.817764 C731.150667,693.908355 731.017613,694.199942 730.813782,694.692532 C730.609952,695.185122 730.406124,695.646565 730.202294,696.076874 L732.512361,696.076874 L732.970977,695.380456 C733.072893,695.233246 733.177637,695.159641 733.285215,695.159641 C733.392792,695.159641 733.698533,695.33799 734.202447,695.694694 C734.706362,696.051397 734.958315,696.30335 734.958315,696.450561 C734.958315,696.597772 734.720516,696.77329 734.244912,696.977121 C734.165644,700.521507 734.103364,702.848537 734.058068,703.95828 C734.012772,705.068024 733.953323,705.823884 733.879717,706.225883 C733.806112,706.627882 733.656072,706.987411 733.429594,707.304481 C733.203115,707.621551 732.857741,707.89049 732.393461,708.111306 C731.92918,708.332123 731.600791,708.442529 731.408285,708.442529 C731.317693,708.442529 731.249751,708.357601 731.204455,708.187742 C731.113864,707.870673 731.000626,707.62155 730.864739,707.440367 C730.728852,707.259185 730.496716,707.089329 730.168322,706.930794 C729.839929,706.772259 729.341684,706.602403 728.673573,706.42122 L728.758502,706.064518 C730.106048,706.257025 730.955329,706.353277 731.30637,706.353277 C731.657411,706.353277 731.898041,706.316475 732.028266,706.242869 C732.158491,706.169264 732.24625,706.047534 732.291546,705.877675 C732.336842,705.707816 732.382137,705.314316 732.427432,704.697162 C732.472728,704.080009 732.518023,703.077857 732.563319,701.690677 C732.608614,700.303498 732.636924,698.624752 732.648247,696.654391 L729.930521,696.654391 Z M723.543864,696.331661 L725.191486,696.331661 L725.650102,695.652229 C725.729369,695.527666 725.814297,695.465385 725.904889,695.465385 C725.99548,695.465385 726.284236,695.618256 726.771164,695.924002 C727.258092,696.229747 727.501553,696.459053 727.501553,696.611926 C727.501553,696.764799 727.286402,696.926162 726.856093,697.096021 L726.856093,704.620726 C726.856093,705.118979 726.861755,705.470015 726.873079,705.673845 L726.890065,706.251362 C726.890065,706.307982 726.87591,706.356108 726.8476,706.395741 C726.81929,706.435375 726.717377,706.497656 726.541856,706.582585 C726.366335,706.667514 726.151184,706.752443 725.896396,706.837372 C725.641608,706.922301 725.483075,706.964765 725.420794,706.964765 C725.358512,706.964765 725.327372,706.902485 725.327372,706.777922 L725.327372,705.707817 L722.558688,705.707817 L722.558688,706.709978 C722.558688,706.834542 722.507731,706.930793 722.405816,706.998737 C722.303901,707.06668 722.080257,707.165763 721.734877,707.295988 C721.389498,707.426213 721.168685,707.491325 721.072431,707.491325 C720.976178,707.491325 720.933714,707.423382 720.945038,707.287495 C721.001658,706.766595 721.029967,706.20607 721.029967,705.605902 L721.029967,696.943149 C721.029967,696.467545 721.012981,695.986285 720.97901,695.499357 C721.601825,695.714511 722.173674,695.974958 722.694574,696.280703 C723.034292,694.740651 723.20981,693.489377 723.221134,692.526844 C723.719386,692.628759 724.189322,692.764644 724.630954,692.934503 C725.072587,693.104361 725.327372,693.217599 725.395315,693.274218 C725.463259,693.330838 725.49723,693.393119 725.49723,693.461062 C725.49723,693.574301 725.40664,693.653568 725.225457,693.698863 C725.08957,693.732835 724.939531,693.877213 724.775334,694.132001 C724.611137,694.386789 724.200651,695.120002 723.543864,696.331661 L723.543864,696.331661 Z M725.327372,700.697009 L725.327372,696.875206 L722.558688,696.875206 L722.558688,700.697009 L725.327372,700.697009 Z M725.327372,705.164272 L725.327372,701.25754 L722.558688,701.25754 L722.558688,705.164272 L725.327372,705.164272 Z M728.758502,699.728819 C729.573824,700.317662 730.140011,700.759289 730.457081,701.05371 C730.77415,701.348132 730.98364,701.563283 731.085555,701.69917 C731.18747,701.835057 731.238427,702.016237 731.238427,702.242716 C731.238427,702.650377 731.108204,703.012737 730.847754,703.329806 C730.587304,703.646876 730.374983,703.805408 730.210787,703.805408 C730.04659,703.805408 729.930521,703.570441 729.862578,703.100498 C729.794634,702.630556 729.644595,702.104001 729.412454,701.52082 C729.180314,700.937638 728.900051,700.419576 728.571658,699.96662 L728.758502,699.728819 Z M741.073199,695.12567 L740.54664,699.796762 L744.334471,699.796762 L744.334471,697.265879 C744.334471,696.767627 744.317485,696.297691 744.283514,695.856059 C744.781766,695.969298 745.229054,696.085366 745.625391,696.204267 C746.021728,696.323168 746.273682,696.410927 746.381259,696.467547 C746.488836,696.524167 746.542624,696.592109 746.542624,696.671376 C746.542624,696.750644 746.344458,696.886529 745.948121,697.079035 L745.948121,699.796762 L748.954606,699.796762 L749.803896,698.47187 C749.871839,698.358631 749.939781,698.302012 750.007725,698.302012 C750.098316,698.302012 750.446522,698.573782 751.052351,699.11733 C751.658181,699.660878 751.961091,699.992098 751.961091,700.110999 C751.961091,700.2299 751.830868,700.28935 751.570418,700.28935 L745.948121,700.28935 L745.948121,706.081504 C745.948121,706.613728 745.891502,706.995905 745.778263,707.228045 C745.665024,707.460185 745.362114,707.697984 744.869523,707.941448 C744.376933,708.184912 744.040052,708.306643 743.858869,708.306643 C743.74563,708.306643 743.672025,708.216053 743.638054,708.03487 C743.547462,707.604561 743.371944,707.281834 743.111494,707.06668 C742.851044,706.851526 742.330152,706.613727 741.548801,706.353277 L741.548801,706.047533 C742.567954,706.194744 743.241717,706.268348 743.570111,706.268348 C743.898504,706.268348 744.107993,706.208898 744.198585,706.089997 C744.289176,705.971096 744.334471,705.736128 744.334471,705.385087 L744.334471,700.28935 L740.648555,700.28935 L740.427739,700.713995 C740.337148,700.883853 740.246558,700.968781 740.155967,700.968781 C740.065375,700.968781 739.850224,700.898008 739.510507,700.756459 C739.170789,700.61491 738.853724,700.447885 738.559302,700.255378 C738.785781,700.040224 738.924497,699.867537 738.975454,699.737312 C739.026412,699.607087 739.0802,699.3155 739.136819,698.862543 L739.561464,695.057726 C739.60676,694.650065 739.629407,694.369803 739.629407,694.21693 C739.629407,694.064057 739.618083,693.902694 739.595436,693.732835 C740.354138,694.015933 740.954297,694.31035 741.395929,694.616096 C742.720828,694.480209 743.912652,694.282043 744.971438,694.021593 C746.030224,693.761143 747.301315,693.347826 748.784748,692.781631 C749.724633,693.6196 750.237033,694.083874 750.321962,694.174465 C750.406891,694.265057 750.449356,694.344323 750.449356,694.412266 C750.449356,694.48021 750.347442,694.514181 750.143611,694.514181 L749.651023,694.497195 C749.401897,694.497195 748.796077,694.54249 747.833544,694.633082 C745.04786,694.91618 742.794435,695.080374 741.073199,695.12567 L741.073199,695.12567 Z M746.695496,701.155625 C748.246873,702.027567 749.452852,702.806074 750.313469,703.491171 C751.174087,704.176268 751.604389,704.801905 751.604389,705.368101 C751.604389,705.707819 751.476997,706.053193 751.222209,706.404234 C750.967421,706.755276 750.738115,706.930794 750.534284,706.930794 C750.409721,706.930794 750.302146,706.868513 750.211554,706.74395 C750.120963,706.619387 750.013388,706.398574 749.888824,706.081504 C749.571755,705.277506 749.07351,704.41124 748.394075,703.482678 C747.71464,702.554117 747.086172,701.886016 746.508652,701.478355 L746.695496,701.155625 Z M741.786603,701.25754 C742.0697,701.438722 742.40092,701.707661 742.780271,702.064365 C743.159622,702.421068 743.349295,702.656036 743.349295,702.769275 C743.349295,702.848543 743.224734,702.90233 742.975608,702.93064 C742.726482,702.95895 742.466036,703.097666 742.194262,703.346792 C741.310996,704.20741 740.444729,704.93496 739.595436,705.529466 C738.746142,706.123972 737.766638,706.755271 736.656894,707.423382 L736.419093,707.100652 C737.438245,706.28533 738.465875,705.311487 739.502014,704.179096 C740.538152,703.046704 741.299674,702.072862 741.786603,701.25754 L741.786603,701.25754 Z M757.685302,695.924002 L758.415691,695.924002 L758.857322,695.295527 C758.947913,695.15964 759.046996,695.091698 759.154573,695.091698 C759.26215,695.091698 759.463147,695.258723 759.757569,695.592779 C760.05199,695.926834 760.199199,696.141986 760.199199,696.238239 C760.199199,696.334492 760.091623,696.382618 759.876469,696.382618 L757.685302,696.382618 L757.685302,698.47187 L758.364734,698.47187 L758.806364,697.860382 C758.896956,697.735819 758.990377,697.673538 759.08663,697.673538 C759.182883,697.673538 759.398034,697.843394 759.73209,698.183112 C760.066145,698.522829 760.233171,698.737981 760.233171,698.828572 C760.233171,698.919163 760.136919,698.964458 759.944412,698.964458 L757.158743,698.964458 C758.132599,699.20226 758.619521,699.394764 758.619521,699.541975 C758.619521,699.621242 758.483636,699.728818 758.211862,699.864705 L758.211862,701.25754 L758.585549,701.25754 L758.908279,700.764952 C758.99887,700.629065 759.086629,700.561122 759.171559,700.561122 C759.256488,700.561122 759.446161,700.719655 759.740583,701.036725 C760.035005,701.353794 760.182213,701.554791 760.182213,701.63972 C760.182213,701.724649 760.085961,701.767114 759.893455,701.767114 L758.211862,701.767114 L758.211862,705.419058 C758.868649,705.758776 759.791534,706.007898 760.980545,706.166433 C762.169557,706.324968 763.466126,706.404234 764.870291,706.404234 C766.274457,706.404234 767.786177,706.341954 769.405497,706.217391 L769.439469,706.523135 C768.986512,706.636374 768.638307,706.800568 768.394843,707.015723 C768.151379,707.230877 768.012663,707.474338 767.978691,707.746112 C767.967367,707.859351 767.939058,707.930124 767.893762,707.958434 C767.848466,707.986744 767.774862,708.000899 767.672947,708.000899 C767.208666,708.000899 766.246148,707.941449 764.785362,707.822548 C763.324577,707.703647 762.178048,707.581916 761.34574,707.457353 C760.513432,707.33279 759.81136,707.185581 759.239502,707.015723 C758.667644,706.845864 758.189216,706.650529 757.804203,706.429713 C757.41919,706.208897 757.048337,705.897494 756.691633,705.495494 C756.33493,705.093495 755.969739,704.547125 755.59605,703.856366 C755.188389,705.249207 754.474993,706.670338 753.45584,708.119799 L753.150096,708.000899 C754.25984,705.804059 754.871322,703.182611 754.984562,700.136478 C756.060334,700.396928 756.598212,700.600755 756.598212,700.747966 C756.598212,700.81591 756.541593,700.872528 756.428354,700.917824 C756.315115,700.96312 756.238679,701.036724 756.199046,701.138639 C756.159412,701.240555 756.108455,701.492508 756.046173,701.894507 C755.983892,702.296506 755.890471,702.740963 755.765908,703.227891 C756.150921,703.760116 756.558576,704.213065 756.988885,704.586755 L756.988885,700.425236 C756.988885,699.870364 756.977561,699.383443 756.954913,698.964458 L754.373073,698.964458 C754.067327,698.964458 753.829529,699.004091 753.65967,699.083359 L753.319954,698.386941 C753.557756,698.443561 753.84085,698.47187 754.169244,698.47187 L756.394382,698.47187 L756.394382,696.382618 L754.967576,696.382618 C754.66183,696.382618 754.424031,696.422251 754.254173,696.501519 L753.863499,695.839073 C754.101302,695.895692 754.384395,695.924002 754.712789,695.924002 L756.394382,695.924002 L756.394382,694.072551 C756.394382,693.506355 756.383058,693.002448 756.360411,692.560815 C756.99455,692.71935 757.453162,692.860897 757.73626,692.98546 C758.019357,693.110023 758.160904,693.200613 758.160904,693.257233 C758.160904,693.3365 758.002372,693.449738 757.685302,693.596948 L757.685302,695.924002 Z M760.691787,694.429252 L759.978384,694.429252 C759.729258,694.429252 759.531092,694.457562 759.383881,694.514181 L759.02718,693.851735 C759.208362,693.908355 759.434837,693.936664 759.706611,693.936664 L764.479618,693.936664 L764.95522,693.18929 C765.057136,693.030755 765.164711,692.951488 765.27795,692.951488 C765.39119,692.951488 765.645974,693.158147 766.042311,693.57147 C766.438648,693.984793 766.636814,694.231084 766.636814,694.310352 C766.636814,694.389619 766.50659,694.429252 766.24614,694.429252 L764.377703,694.429252 L764.377703,701.886014 L765.430822,701.614241 L765.515751,701.953957 L764.377703,702.395588 L764.377703,703.346792 C764.377703,703.777101 764.383365,704.071518 764.394689,704.230053 C765.153392,703.199577 765.759212,702.044555 766.212169,700.764952 C765.702593,699.723152 765.113758,698.658719 764.445647,697.571623 L764.751391,697.367794 L766.551885,699.64389 C766.812335,698.681357 767.004838,697.582953 767.129401,696.348646 L765.566709,696.348646 C765.260963,696.348646 765.023164,696.38828 764.853306,696.467547 L764.547561,695.737158 C764.785364,695.793778 765.068457,695.822087 765.396851,695.822087 L767.044473,695.822087 L767.367203,695.261556 C767.44647,695.136993 767.534229,695.074712 767.630482,695.074712 C767.726736,695.074712 767.964534,695.176626 768.343885,695.380456 C768.723237,695.584287 768.912909,695.723003 768.912909,695.796608 C768.912909,695.870214 768.850629,695.940987 768.726066,696.008931 C768.601503,696.076874 768.510913,696.175957 768.454293,696.306182 C768.397674,696.436407 768.341055,696.671375 768.284435,697.011092 C768.035309,698.437906 767.701258,699.643885 767.282274,700.629066 C767.893765,701.478359 768.298589,702.120982 768.496758,702.556953 C768.694926,702.992924 768.794009,703.380762 768.794009,703.720479 C768.794009,704.060197 768.694926,704.354614 768.496758,704.60374 C768.298589,704.852867 768.117409,704.977428 767.953212,704.977428 C767.789015,704.977428 767.678609,704.940626 767.621989,704.86702 C767.56537,704.793415 767.514413,704.62639 767.469117,704.365939 C767.367202,703.743124 767.106756,702.910829 766.687771,701.869028 C766.212166,702.729646 765.510094,703.658193 764.581533,704.654698 L764.394689,704.501826 L764.445647,705.385087 C764.445647,705.487002 764.417337,705.563437 764.360718,705.614395 C764.304098,705.665353 764.151228,705.741788 763.902101,705.843703 C763.652975,705.945618 763.474626,705.996575 763.367049,705.996575 C763.259472,705.996575 763.205684,705.917309 763.205684,705.758774 L763.205684,702.854204 C761.382533,703.567611 760.391705,703.969604 760.233171,704.060195 C760.074636,704.150787 759.972722,704.196082 759.927426,704.196082 C759.780216,704.196082 759.576388,703.79975 759.315938,703.007076 C759.961401,702.939133 760.420013,702.859866 760.691787,702.769275 L760.691787,694.429252 Z M763.205684,694.429252 L761.778878,694.429252 L761.778878,697.028078 L763.205684,697.028078 L763.205684,694.429252 Z M761.778878,697.520666 L761.778878,699.745805 L763.205684,699.745805 L763.205684,697.520666 L761.778878,697.520666 Z M761.778878,700.238392 L761.778878,702.514488 L763.205684,702.191758 L763.205684,700.238392 L761.778878,700.238392 Z" id="重拾写作的乐趣"></path>
        </g>
    </g>
</svg>